<?xml version="1.0" standalone="no"?>
<!DOCTYPE svg PUBLIC "-//W3C//DTD SVG 20010904//EN"
 "http://www.w3.org/TR/2001/REC-SVG-20010904/DTD/svg10.dtd">
<svg version="1.0" xmlns="http://www.w3.org/2000/svg"
 width="256.000000pt" height="256.000000pt" viewBox="0 0 256.000000 256.000000"
 preserveAspectRatio="xMidYMid meet">
<metadata>
Created by potrace 1.14, written by Peter Selinger 2001-2017
</metadata>
<g transform="translate(0.000000,256.000000) scale(0.100000,-0.100000)"
fill="#000000" stroke="none">
<path d="M225 2310 c-29 -32 -41 -172 -27 -310 14 -139 46 -263 101 -389 l41
-95 -34 -80 c-49 -115 -85 -245 -97 -356 -6 -52 -14 -101 -18 -109 -4 -8 -31
-20 -60 -27 -57 -12 -131 -43 -131 -54 0 -13 13 -20 24 -11 14 12 131 51 151
51 12 0 15 -12 15 -53 0 -50 -2 -53 -34 -71 -40 -22 -82 -63 -73 -72 3 -4 27
8 53 25 26 17 50 31 54 31 4 0 14 -25 22 -56 l16 -56 -34 -45 c-43 -56 -33
-80 11 -27 18 22 35 37 37 34 3 -3 17 -27 33 -54 136 -238 489 -366 1005 -366
520 0 869 128 1008 370 14 25 27 47 30 50 2 3 19 -12 37 -34 44 -53 54 -30 11
27 l-34 44 17 61 c8 34 19 62 23 62 3 0 27 -16 52 -35 46 -35 66 -43 66 -26 0
12 -54 58 -91 77 -26 13 -29 20 -29 64 0 38 4 50 15 50 20 0 137 -39 151 -51
11 -9 24 -2 24 11 0 11 -89 47 -135 55 -54 10 -65 21 -65 65 0 65 -29 208 -66
321 l-35 109 60 123 c83 170 122 298 128 417 6 110 -2 126 -62 140 -22 5 -94
12 -160 16 -199 11 -396 -21 -523 -85 -54 -27 -59 -28 -102 -15 -153 46 -392
54 -563 19 -72 -15 -80 -15 -100 -1 -59 44 -157 106 -202 128 -120 61 -395
148 -465 148 -15 0 -35 -9 -45 -20z m246 -106 c62 -20 145 -51 185 -69 84 -38
220 -124 253 -158 l22 -25 72 19 c40 10 124 24 187 31 98 10 132 9 227 -5 62
-9 140 -26 173 -37 l60 -20 52 29 c29 17 94 42 143 57 86 27 100 28 303 29
242 0 236 2 226 -80 -17 -130 -84 -319 -165 -458 l-40 -71 30 -81 c17 -44 37
-105 46 -135 14 -52 47 -252 42 -256 -1 -1 -20 -5 -42 -11 -57 -13 -55 -39 3
-35 l42 4 0 -35 0 -35 -37 9 c-61 14 -85 11 -81 -8 2 -12 20 -20 58 -27 30 -6
55 -13 54 -16 -1 -3 -4 -26 -8 -51 l-7 -47 -50 19 c-59 23 -89 24 -89 5 0 -8
23 -21 55 -32 31 -9 58 -21 61 -26 10 -15 -48 -101 -106 -158 -65 -64 -177
-126 -295 -163 -161 -50 -304 -68 -565 -68 -427 0 -692 70 -861 228 -56 52
-113 137 -106 156 3 8 30 22 61 31 33 11 56 24 56 32 0 19 -30 18 -90 -5 -55
-21 -51 -24 -65 46 l-6 31 58 12 c32 7 62 14 66 17 13 8 -15 34 -32 29 -9 -2
-33 -7 -53 -11 l-38 -6 0 36 0 37 42 -4 c33 -2 43 1 46 13 2 13 -8 18 -42 23
-54 8 -54 8 -31 142 20 116 48 207 97 322 l40 93 -46 100 c-74 157 -98 262
-104 463 l-4 169 45 -6 c25 -4 96 -23 158 -43z"/>
<path d="M467 1958 c-2 -7 0 -21 5 -31 7 -15 18 -16 76 -11 51 5 77 2 106 -10
22 -9 41 -14 43 -12 6 6 -51 45 -91 61 -44 19 -133 20 -139 3z"/>
<path d="M1928 1884 c-27 -8 -48 -18 -48 -22 0 -4 29 -5 65 -4 52 3 74 -1 107
-18 46 -24 68 -21 68 10 0 45 -101 62 -192 34z"/>
<path d="M1692 1574 c-17 -8 -50 -32 -72 -54 -39 -39 -96 -137 -86 -148 3 -3
29 17 58 44 54 51 80 65 155 84 46 12 61 36 43 70 -13 24 -49 25 -98 4z"/>
<path d="M930 1556 c-62 -16 -112 -48 -160 -103 -54 -61 -55 -82 -2 -44 60 42
115 63 172 65 32 1 65 8 74 15 23 19 20 47 -6 65 -26 18 -20 18 -78 2z"/>
<path d="M837 1256 c-70 -25 -107 -80 -107 -159 0 -82 75 -157 157 -157 110 0
190 98 163 199 -14 52 -46 90 -94 112 -48 22 -68 23 -119 5z m148 -71 c39 -38
28 -93 -22 -114 -51 -21 -103 13 -103 69 0 29 44 70 75 70 14 0 37 -11 50 -25z"/>
<path d="M1697 1256 c-78 -29 -111 -81 -105 -166 5 -64 26 -99 79 -129 47 -27
111 -27 158 0 55 31 75 65 79 134 3 50 0 66 -20 94 -43 64 -122 92 -191 67z
m134 -57 c49 -26 43 -107 -10 -129 -75 -31 -134 58 -76 115 26 27 54 31 86 14z"/>
<path d="M781 915 c-104 -33 -171 -159 -105 -201 22 -15 33 -16 90 -5 126 23
234 78 234 120 0 28 -31 62 -74 82 -48 22 -84 23 -145 4z"/>
<path d="M1733 919 c-35 -10 -83 -61 -83 -89 0 -62 244 -153 317 -118 79 37 3
178 -112 207 -51 13 -78 13 -122 0z"/>
<path d="M1248 849 c-27 -15 -22 -38 18 -75 45 -43 67 -43 110 0 39 39 43 61
15 76 -25 13 -121 13 -143 -1z"/>
<path d="M1175 650 c-10 -16 57 -109 77 -110 20 0 164 18 196 25 21 5 30 29
14 39 -4 2 -50 -2 -102 -9 l-95 -14 -35 40 c-37 41 -45 46 -55 29z"/>
</g>
</svg>
