<?xml version="1.0" standalone="no"?>
<!DOCTYPE svg PUBLIC "-//W3C//DTD SVG 20010904//EN"
 "http://www.w3.org/TR/2001/REC-SVG-20010904/DTD/svg10.dtd">
<svg version="1.0" xmlns="http://www.w3.org/2000/svg"
 width="180.000000pt" height="180.000000pt" viewBox="0 0 180.000000 180.000000"
 preserveAspectRatio="xMidYMid meet">
<metadata>
Created by potrace 1.14, written by Peter Selinger 2001-2017
</metadata>
<g transform="translate(0.000000,180.000000) scale(0.100000,-0.100000)"
fill="#000000" stroke="none">
<path d="M686 1721 c-7 -11 15 -91 25 -91 5 0 8 -3 8 -7 -1 -5 0 -10 1 -13 1
-3 3 -12 5 -20 16 -68 51 -144 83 -178 6 -7 12 -18 12 -23 0 -9 37 -67 51 -79
3 -3 15 -21 27 -40 11 -20 32 -49 46 -65 14 -17 26 -40 26 -52 0 -13 9 -28 20
-35 11 -7 20 -18 20 -24 0 -7 16 -28 35 -47 19 -19 35 -41 35 -49 0 -8 -3 -9
-8 -3 -10 15 -32 17 -47 5 -9 -7 -27 1 -66 32 -30 23 -57 46 -60 51 -3 5 -9 1
-12 -8 -5 -11 -12 -13 -24 -7 -25 12 -49 8 -45 -7 2 -9 -4 -12 -18 -8 -11 3
-23 1 -26 -5 -3 -5 -12 -7 -19 -5 -6 3 -19 -3 -28 -14 -9 -10 -23 -19 -32 -19
-8 0 -19 -9 -25 -21 -7 -11 -14 -18 -17 -15 -10 10 -33 -15 -33 -35 0 -13 -5
-16 -16 -12 -10 3 -17 -1 -20 -14 -3 -10 -18 -27 -33 -37 -18 -12 -27 -26 -24
-36 3 -11 -3 -19 -17 -23 -15 -4 -21 -11 -17 -21 4 -9 2 -16 -3 -16 -17 0 -55
-44 -52 -59 2 -8 0 -17 -5 -20 -17 -12 -54 -81 -49 -90 8 -13 -4 -42 -15 -35
-5 3 -9 -4 -9 -14 0 -11 -7 -25 -15 -32 -9 -8 -12 -22 -8 -41 3 -17 1 -29 -5
-29 -6 0 -16 -22 -23 -50 -7 -27 -16 -50 -21 -50 -4 0 -5 -7 -2 -15 6 -15 -42
-170 -59 -193 -5 -7 -7 -15 -3 -19 3 -3 6 -1 6 5 0 12 50 9 71 -4 8 -5 10 -2
7 8 -4 8 0 15 8 15 7 0 11 -3 10 -6 -2 -3 7 -7 20 -7 22 -2 23 0 9 10 -15 10
-14 12 4 13 11 1 22 -6 24 -15 3 -10 5 -5 6 11 0 15 6 27 11 27 6 0 10 -12 11
-27 l1 -28 7 25 c4 16 15 26 30 28 13 2 21 0 18 -5 -4 -6 0 -10 8 -10 13 0 13
2 0 17 -13 15 -11 16 24 15 28 -1 37 3 34 12 -3 7 0 13 6 13 6 0 11 -5 11 -10
0 -6 18 2 40 16 22 15 40 31 40 37 0 6 10 1 23 -10 12 -11 29 -23 37 -27 9 -5
8 -2 -2 7 -17 13 -17 15 2 32 11 10 20 13 20 7 0 -7 5 -12 12 -12 6 0 9 3 6 6
-4 3 1 13 10 23 14 14 19 15 27 3 9 -11 15 -7 34 17 24 32 51 41 51 19 0 -7 9
2 20 20 21 34 37 43 26 16 -6 -15 -4 -15 11 -3 10 8 23 21 30 29 7 8 13 11 13
5 0 -5 4 -4 9 4 12 18 45 6 37 -14 -3 -8 -2 -17 3 -19 4 -3 7 8 7 24 0 16 -3
27 -8 24 -4 -3 -8 0 -8 6 0 6 11 15 24 20 14 5 30 18 36 29 6 11 17 18 24 15
9 -3 17 3 21 16 4 12 9 19 12 16 4 -3 12 2 20 12 10 11 12 12 8 2 -4 -8 1 -6
9 5 34 44 56 66 56 58 0 -4 7 0 14 10 8 10 23 20 33 21 10 2 18 8 18 15 0 6 6
16 14 20 7 5 11 13 8 18 -3 5 1 10 9 10 9 0 26 -15 38 -33 18 -27 25 -31 35
-21 11 10 12 7 6 -13 -5 -19 -4 -21 4 -10 19 26 13 42 -11 35 l-23 -7 23 21
c17 17 21 28 15 49 -3 15 -11 32 -18 37 -28 24 -65 86 -59 97 4 7 3 8 -4 4 -6
-4 -18 4 -26 16 -19 29 -12 57 28 115 30 45 30 46 -9 108 -34 53 -45 80 -50
124 -9 64 -15 86 -25 89 -5 2 -10 10 -10 18 0 16 -18 51 -37 72 -7 7 -13 23
-13 34 0 13 -5 18 -14 15 -10 -4 -17 3 -21 23 -5 21 -11 27 -22 23 -12 -5 -15
-2 -10 10 3 9 2 19 -3 22 -4 3 -10 0 -12 -7 -3 -7 -13 6 -23 30 -18 40 -35 55
-35 31 0 -7 -13 5 -30 26 -24 30 -31 34 -36 21 -5 -13 -9 -12 -26 9 -11 14
-28 25 -38 25 -9 0 -23 7 -30 15 -7 8 -21 15 -31 15 -11 0 -19 5 -19 11 0 8
-5 8 -15 -1 -11 -10 -18 -10 -29 -1 -19 16 -75 31 -80 22z m519 -931 c3 -5 1
-10 -4 -10 -6 0 -11 5 -11 10 0 6 2 10 4 10 3 0 8 -4 11 -10z"/>
<path d="M1295 670 c-4 -12 -11 -17 -18 -14 -7 4 -9 4 -5 -1 4 -4 2 -15 -5
-23 -9 -12 -9 -14 0 -8 7 4 22 2 34 -5 17 -9 20 -8 14 2 -6 9 -4 11 7 6 11 -4
15 0 14 11 -2 9 -8 18 -14 20 -7 2 -10 8 -7 12 3 5 1 11 -4 14 -5 4 -12 -3
-16 -14z m20 -32 c-19 -11 -30 -5 -21 11 4 6 14 7 22 4 15 -5 14 -7 -1 -15z"/>
<path d="M1411 674 c0 -11 3 -14 6 -6 3 7 2 16 -1 19 -3 4 -6 -2 -5 -13z"/>
<path d="M1225 607 c-9 -15 -22 -24 -29 -21 -6 3 0 -3 14 -15 24 -19 60 -34
60 -25 0 3 -11 9 -25 14 -14 5 -25 14 -25 20 0 7 6 8 19 0 26 -13 33 -1 16 29
l-12 24 -18 -26z m28 -11 c4 -10 1 -13 -9 -9 -15 6 -19 23 -5 23 5 0 11 -7 14
-14z"/>
<path d="M1410 619 c0 -5 5 -7 10 -4 6 3 10 8 10 11 0 2 -4 4 -10 4 -5 0 -10
-5 -10 -11z"/>
<path d="M1325 600 c-3 -6 1 -7 9 -4 18 7 21 14 7 14 -6 0 -13 -4 -16 -10z"/>
<path d="M1180 555 c7 -8 16 -12 21 -9 5 3 9 0 9 -5 0 -6 5 -11 11 -11 8 0 8
5 -1 15 -7 8 -16 12 -21 9 -5 -3 -9 0 -9 5 0 6 -5 11 -11 11 -8 0 -8 -5 1 -15z"/>
<path d="M1156 533 c-6 -14 -5 -15 5 -6 7 7 10 15 7 18 -3 3 -9 -2 -12 -12z"/>
<path d="M1366 538 c3 -5 10 -6 15 -3 13 9 11 12 -6 12 -8 0 -12 -4 -9 -9z"/>
<path d="M1175 520 c-3 -5 -2 -10 4 -10 5 0 13 5 16 10 3 6 2 10 -4 10 -5 0
-13 -4 -16 -10z"/>
<path d="M1235 519 c-3 -4 2 -6 10 -5 21 3 28 13 10 13 -9 0 -18 -4 -20 -8z"/>
<path d="M1134 509 c1 -7 10 -13 19 -15 9 -1 15 2 11 7 -3 5 -9 7 -14 4 -4 -3
-11 0 -13 5 -3 6 -4 5 -3 -1z"/>
<path d="M1190 500 c-12 -7 -10 -9 7 -7 12 0 19 5 17 9 -6 10 -6 10 -24 -2z"/>
<path d="M1335 500 c3 -5 8 -10 11 -10 2 0 4 5 4 10 0 6 -5 10 -11 10 -5 0 -7
-4 -4 -10z"/>
<path d="M1256 487 c3 -10 9 -15 12 -12 3 3 0 11 -7 18 -10 9 -11 8 -5 -6z"/>
<path d="M1106 482 c-2 -4 4 -8 14 -8 10 0 16 4 14 8 -3 4 -9 8 -14 8 -5 0
-11 -4 -14 -8z"/>
<path d="M1074 451 c13 -12 18 -13 28 -2 11 10 9 11 -6 5 -12 -5 -17 -4 -13 3
3 5 -1 10 -9 10 -13 0 -13 -2 0 -16z"/>
<path d="M1153 453 c0 -9 4 -10 14 -2 7 6 13 12 13 14 0 1 -6 2 -13 2 -8 0
-14 -6 -14 -14z"/>
<path d="M1053 435 c0 -8 4 -12 9 -9 5 3 6 10 3 15 -9 13 -12 11 -12 -6z"/>
<path d="M1193 433 c0 -9 4 -10 14 -2 7 6 13 12 13 14 0 1 -6 2 -13 2 -8 0
-14 -6 -14 -14z"/>
<path d="M1195 391 c-3 -5 -2 -12 3 -15 5 -3 9 1 9 9 0 17 -3 19 -12 6z"/>
<path d="M1040 380 c-9 -6 -10 -10 -3 -10 6 0 15 5 18 10 8 12 4 12 -15 0z"/>
<path d="M875 341 c-3 -5 -2 -12 3 -15 5 -3 9 1 9 9 0 17 -3 19 -12 6z"/>
<path d="M970 300 c0 -5 5 -10 11 -10 5 0 7 5 4 10 -3 6 -8 10 -11 10 -2 0 -4
-4 -4 -10z"/>
<path d="M914 282 c4 -3 14 -7 22 -8 9 -1 13 0 10 4 -4 3 -14 7 -22 8 -9 1
-13 0 -10 -4z"/>
<path d="M815 271 c-3 -5 -2 -12 3 -15 5 -3 9 1 9 9 0 17 -3 19 -12 6z"/>
<path d="M490 139 c0 -5 5 -7 10 -4 6 3 10 8 10 11 0 2 -4 4 -10 4 -5 0 -10
-5 -10 -11z"/>
</g>
</svg>
